<svg width="28" height="28" viewBox="0 0 28 28" fill="none" xmlns="http://www.w3.org/2000/svg">
<path d="M14.2759 0.672363C10.6634 0.672363 7.19884 2.10765 4.64486 4.66195C2.09056 7.21625 0.655273 10.6808 0.655273 14.293C0.655273 17.9053 2.09056 21.3701 4.64486 23.9241C7.19916 26.4784 10.6637 27.9137 14.2759 27.9137C17.8882 27.9137 21.3531 26.4784 23.907 23.9241C26.4613 21.3698 27.8966 17.9053 27.8966 14.293C27.8966 10.6808 26.4613 7.21593 23.907 4.66195C21.3527 2.10765 17.8882 0.672363 14.2759 0.672363ZM14.2759 25.2777C11.3628 25.2777 8.56885 24.1204 6.50862 22.0605C4.44871 20.0003 3.29141 17.2064 3.29141 14.2932C3.29141 11.38 4.44871 8.5861 6.50862 6.52587C8.56885 4.46595 11.3628 3.30865 14.2759 3.30865C17.1891 3.30865 19.983 4.46595 22.0433 6.52587C24.1032 8.5861 25.2605 11.38 25.2605 14.2932C25.2605 17.2064 24.1032 20.0003 22.0433 22.0605C19.983 24.1204 17.1891 25.2777 14.2759 25.2777Z" fill="#171717"/>
<path d="M12.9575 15.945L9.9346 12.9221L8.07178 14.7849L12.0261 18.7392V18.7395C12.2731 18.9862 12.6081 19.1251 12.9575 19.1251C13.3069 19.1251 13.6419 18.9862 13.8889 18.7395L20.9191 11.7093L19.0563 9.84644L12.9575 15.945Z" fill="#171717"/>
</svg>
