<svg width="25" height="25" viewBox="0 0 25 25" fill="none" xmlns="http://www.w3.org/2000/svg">
<path d="M0.46521 12.1234C0.536585 11.8474 0.57941 11.5618 0.679334 11.3001C1.30743 9.61054 2.50653 8.62062 4.30517 8.38742C4.50978 8.35886 4.67156 8.29223 4.82383 8.13994C5.61847 7.33087 6.42262 6.53607 7.22202 5.73176C7.27912 5.67465 7.33622 5.6223 7.3838 5.57471C7.55986 5.74128 7.72164 5.89834 7.88818 6.05539C7.11734 6.82639 6.34649 7.59738 5.53282 8.40646C6.29415 8.58731 6.94128 8.86334 7.498 9.34878C7.34098 9.53439 7.19347 9.71049 7.05072 9.88658C5.10933 8.39694 2.87768 9.19649 1.92125 10.472C0.869667 11.8664 1.03621 13.7178 1.95456 14.8029C1.95456 14.484 1.96408 14.1985 1.9498 13.9177C1.94505 13.7749 1.99263 13.7035 2.12586 13.6559C2.58742 13.4846 3.04422 13.299 3.50577 13.1181C3.56763 13.0943 3.62949 13.061 3.71038 13.0277C3.67232 12.9658 3.64852 12.9182 3.61046 12.8801C3.11559 12.4042 3.21076 11.8093 3.32972 11.2477C3.4915 10.4958 4.20049 10.0579 4.98085 10.1531C5.66129 10.234 6.21326 10.8575 6.24656 11.5951C6.25608 11.8283 6.25608 12.0568 6.24656 12.29C6.24181 12.3709 6.2085 12.4566 6.16091 12.528C6.05147 12.6945 5.92776 12.8468 5.78977 13.0324C6.27511 13.2228 6.73191 13.4275 7.19823 13.5845C7.46945 13.6749 7.58365 13.7939 7.55034 14.089C7.52179 14.3174 7.54558 14.5506 7.54558 14.7934C8.27837 14.0604 8.83985 12.0568 7.50276 10.353C7.67882 10.2054 7.85488 10.0579 8.04521 9.90086C8.44491 10.353 8.70661 10.867 8.87315 11.4286C9.61545 13.9177 7.96432 16.5067 5.40434 16.9017C3.06325 17.2586 0.869667 15.6357 0.512793 13.2847C0.503276 13.2466 0.479485 13.2133 0.46521 13.18C0.46521 12.8278 0.46521 12.4756 0.46521 12.1234ZM6.82708 14.9171C6.82708 14.7553 6.81756 14.5982 6.83184 14.4412C6.84135 14.2889 6.79377 14.2175 6.64626 14.1651C6.18946 13.9986 5.7517 13.7701 5.29014 13.6511C4.97134 13.5702 4.60019 13.5512 4.28614 13.6321C3.79603 13.7558 3.33923 13.9938 2.8634 14.1699C2.73493 14.2175 2.69686 14.2889 2.70162 14.4174C2.70638 14.722 2.71589 15.0218 2.70162 15.3264C2.6921 15.4977 2.7492 15.6024 2.90147 15.6929C4.03395 16.3449 5.18546 16.3877 6.37504 15.8404C6.71288 15.6833 6.927 15.4882 6.84135 15.0837C6.81756 15.0313 6.82708 14.9742 6.82708 14.9171ZM5.50427 11.8664C5.50427 11.7665 5.50427 11.7046 5.50427 11.6427C5.48523 11.2049 5.16643 10.8813 4.75245 10.8813C4.32896 10.8813 4.04822 11.2239 3.99112 11.6665C3.93402 12.1329 4.13387 12.4804 4.44316 12.7516C4.56688 12.8611 4.93803 12.8849 5.03319 12.785C5.28063 12.5327 5.60419 12.271 5.50427 11.8664Z" fill="#171717"/>
<path d="M13.2462 0.396484C13.4889 0.458354 13.7411 0.501188 13.979 0.586854C15.7253 1.19128 16.7341 2.40488 16.9815 4.23719C17.01 4.44184 17.0767 4.60365 17.2289 4.75595C18.0331 5.54122 18.823 6.34553 19.6176 7.13557C19.6795 7.19744 19.7603 7.23551 19.827 7.2831C19.6224 7.48775 19.4558 7.64481 19.294 7.80662C18.5375 7.0499 17.7714 6.2789 16.9862 5.48887C16.2582 7.83994 14.7546 9.10113 12.2898 8.94884C10.6624 8.84889 9.22543 7.70668 8.65919 6.07426C8.10723 4.49895 8.61637 2.80942 9.44907 1.948C9.62037 2.09553 9.79643 2.23831 9.98201 2.40012C9.33012 3.21395 9.07317 4.12773 9.18737 5.13669C9.25874 5.75539 9.48714 6.31698 9.92966 6.80718C9.92966 6.5597 9.94394 6.31222 9.92491 6.0695C9.90587 5.84581 9.982 5.73159 10.2009 5.65544C10.6958 5.48411 11.1763 5.27946 11.6807 5.07958C11.6474 5.02247 11.6284 4.97487 11.5951 4.94632C11.0859 4.47039 11.1859 3.87073 11.2953 3.29962C11.4333 2.59049 12.1613 2.10029 12.8418 2.18596C13.6411 2.2859 14.1836 2.88081 14.2121 3.6518C14.2312 4.18008 14.2264 4.68456 13.7268 5.0653C14.2978 5.29374 14.8117 5.50315 15.3351 5.69352C15.4874 5.75063 15.5254 5.82678 15.5207 5.97431C15.5112 6.25035 15.5159 6.52639 15.5159 6.82622C16.301 6.04094 16.6436 4.18484 15.7205 2.74755C14.8165 1.33881 12.5229 0.353651 10.4293 1.93372C10.2818 1.75763 10.139 1.58154 9.97725 1.39117C10.5149 0.934278 11.1192 0.648724 11.7854 0.496428C11.9234 0.463114 12.0614 0.429799 12.1946 0.396484C12.542 0.396484 12.8941 0.396484 13.2462 0.396484ZM10.6577 6.92616C10.6577 7.09274 10.6434 7.26407 10.6624 7.42588C10.672 7.51155 10.7195 7.62577 10.7862 7.67336C11.8711 8.4396 13.5841 8.43484 14.6547 7.6686C14.7165 7.62577 14.7689 7.51631 14.7689 7.44016C14.7831 7.10701 14.7831 6.76911 14.7689 6.43596C14.7641 6.35981 14.6927 6.25035 14.6214 6.21703C14.2788 6.06474 13.9219 5.95052 13.5841 5.79822C13.0083 5.53646 12.4373 5.5317 11.8615 5.79822C11.6664 5.88865 11.4618 5.95528 11.262 6.03618C10.6577 6.27415 10.6577 6.27415 10.6577 6.92616ZM13.4794 3.90404C13.4794 3.81362 13.4841 3.72319 13.4794 3.63753C13.4413 3.23775 13.1463 2.94268 12.7751 2.92364C12.3612 2.9046 12.0376 3.14257 11.9757 3.55186C11.9234 3.89929 11.8853 4.25147 12.1851 4.53226C12.247 4.58937 12.2898 4.67028 12.3469 4.74167C12.4516 4.87969 12.8893 4.97963 12.9845 4.85589C13.2034 4.57034 13.5507 4.33714 13.4794 3.90404Z" fill="#171717"/>
<path d="M23.4193 10.367C23.6097 10.21 23.7857 10.0624 23.976 9.90537C24.4328 10.4479 24.7279 11.0476 24.8706 11.7186C25.394 14.1697 23.819 16.5017 21.3447 16.8872C20.945 16.949 20.6643 17.1013 20.393 17.3821C19.6793 18.1246 18.9418 18.8432 18.2137 19.5714C18.1566 19.6285 18.0995 19.6809 18.0519 19.7237C17.8759 19.5571 17.7093 19.4001 17.5428 19.243C18.3137 18.472 19.0845 17.701 19.8744 16.9157C17.6808 16.2542 16.3961 14.8835 16.4056 12.5753C16.4151 10.7335 17.362 9.41041 19.0512 8.69177C20.6072 8.03499 22.068 8.3253 23.4336 9.34378C23.2718 9.53891 23.1291 9.715 22.9673 9.91013C21.9871 9.14865 20.8927 8.90593 19.7031 9.2248C18.8751 9.44849 18.2185 9.94345 17.7284 10.6478C16.772 12.0328 17.0194 13.827 17.8806 14.8169C17.8806 14.4933 17.8902 14.203 17.8759 13.9127C17.8711 13.7746 17.9235 13.7175 18.0424 13.6699C18.5611 13.4748 19.0797 13.2702 19.6365 13.0512C19.508 12.8799 19.389 12.7276 19.2844 12.561C19.2273 12.4706 19.1844 12.3611 19.1797 12.2612C19.1749 11.9661 19.1702 11.6663 19.213 11.3807C19.3319 10.6193 19.9695 10.1338 20.7689 10.1624C21.4732 10.1862 22.0727 10.762 22.1346 11.4854C22.1584 11.7615 22.1536 12.0423 22.1489 12.3231C22.1489 12.404 22.1013 12.4896 22.0537 12.5563C21.949 12.7133 21.83 12.8609 21.6968 13.0417C22.1869 13.2368 22.6532 13.4367 23.1291 13.5985C23.3813 13.6842 23.5097 13.7984 23.4717 14.0887C23.4431 14.3124 23.4669 14.5409 23.4907 14.7741C24.0141 14.1268 24.2473 13.3844 24.233 12.5705C24.2282 11.752 23.9475 11.019 23.4193 10.367ZM22.7436 14.9026C22.7436 14.7598 22.7294 14.6123 22.7484 14.4742C22.7674 14.2934 22.6961 14.2077 22.5248 14.1459C22.0822 13.9888 21.6587 13.7699 21.2115 13.6509C20.9022 13.57 20.5358 13.5462 20.2313 13.6271C19.7269 13.7604 19.2463 13.9888 18.7657 14.1934C18.6991 14.222 18.6277 14.3362 18.6229 14.4124C18.6087 14.7122 18.6325 15.0168 18.6087 15.3214C18.5944 15.5165 18.6753 15.6117 18.8276 15.6974C19.9505 16.3446 21.0973 16.3875 22.2773 15.8544C22.6342 15.6926 22.8341 15.4832 22.7484 15.0739C22.7341 15.0168 22.7436 14.9549 22.7436 14.9026ZM21.4351 11.8709C21.4351 11.771 21.4351 11.7044 21.4351 11.6425C21.4256 11.2142 21.102 10.881 20.6881 10.8763C20.2788 10.8715 19.9838 11.1904 19.9267 11.6092C19.8649 12.0613 20.0362 12.4087 20.3264 12.7228C20.4359 12.8418 20.8831 12.918 20.9736 12.799C21.1782 12.5087 21.535 12.2802 21.4351 11.8709Z" fill="#171717"/>
<path d="M13.7074 20.9944C14.2879 21.218 14.7971 21.4227 15.311 21.6178C15.4585 21.6749 15.5204 21.7463 15.5156 21.9129C15.5013 22.1889 15.5108 22.465 15.5108 22.7648C16.3626 21.8653 16.6814 19.8855 15.5299 18.4196C14.3736 16.9442 12.161 16.5112 10.4337 17.8675C10.2862 17.6914 10.1339 17.5106 9.97216 17.3202C10.5479 16.8253 11.1998 16.5207 11.9231 16.3922C14.2308 15.9876 16.3483 17.3773 16.9003 19.6427C17.4903 22.0461 15.7916 24.5352 13.3458 24.8541C10.9714 25.1635 8.8825 23.6548 8.49232 21.2894C8.42095 20.8563 8.24489 20.566 7.95463 20.2852C7.22661 19.5809 6.51762 18.8575 5.80387 18.1388C5.74677 18.0817 5.69919 18.0246 5.64209 17.9675C5.81339 17.7961 5.97041 17.6296 6.13695 17.4582C6.91256 18.234 7.67865 19.005 8.45901 19.7903C8.59224 19.4238 8.69217 19.0811 8.84444 18.767C8.9967 18.4482 9.20131 18.1531 9.3964 17.839C9.61053 18.0151 9.78182 18.1578 9.97216 18.3197C9.25841 19.2334 9.00622 20.2567 9.23938 21.3894C9.34406 21.8891 9.55342 22.346 9.92457 22.7362C9.92457 22.4507 9.92933 22.1699 9.91982 21.8843C9.91506 21.7463 9.95788 21.6749 10.0959 21.6226C10.6193 21.4274 11.1332 21.218 11.6804 21.0039C11.6138 20.9087 11.5662 20.8183 11.4948 20.7516C11.0904 20.3804 11.2426 19.8902 11.2426 19.4476C11.2426 19.1049 11.4092 18.8051 11.6518 18.5576C12.0801 18.1198 12.6987 17.9865 13.2602 18.2102C13.8216 18.4339 14.1928 18.9717 14.1975 19.5856C14.1975 19.5999 14.1975 19.6189 14.1975 19.6332C14.2499 20.152 14.2023 20.6279 13.7074 20.9944ZM14.7781 22.8695C14.7781 22.7124 14.7685 22.5506 14.7828 22.3936C14.7923 22.2556 14.7495 22.1794 14.6115 22.1318C14.1547 21.9652 13.717 21.7416 13.2506 21.6226C12.9318 21.5417 12.5607 21.5226 12.2466 21.6035C11.7518 21.732 11.2807 21.9652 10.8001 22.1461C10.6811 22.1889 10.6526 22.2603 10.6574 22.3745C10.6669 22.6839 10.6716 22.998 10.6574 23.3073C10.6478 23.4882 10.7192 23.5786 10.8667 23.6643C11.9849 24.302 13.1174 24.3591 14.2927 23.8261C14.6496 23.6643 14.8827 23.4692 14.7876 23.0408C14.7685 22.979 14.7781 22.9218 14.7781 22.8695ZM13.479 19.8283C13.479 19.7379 13.4886 19.6475 13.479 19.5618C13.4362 19.1573 13.1364 18.867 12.7463 18.8432C12.3751 18.8241 12.0325 19.0859 11.9754 19.4809C11.9231 19.8236 11.885 20.1805 12.1848 20.4566C12.2466 20.5137 12.2895 20.5946 12.3418 20.666C12.4465 20.7992 12.908 20.8897 13.008 20.7612C13.2126 20.4804 13.5599 20.2567 13.479 19.8283Z" fill="#171717"/>
<path d="M12.7179 10.9287C13.1557 10.6003 13.622 10.4813 14.1359 10.705C15.1208 11.1333 15.335 12.3993 14.5356 13.1941C13.9646 13.7604 13.346 14.2792 12.7417 14.817C12.7036 14.7979 12.6703 14.7884 12.6513 14.7694C12.085 14.2649 11.5093 13.7747 10.9573 13.2559C10.3578 12.6896 10.2436 11.9186 10.6337 11.2809C10.9954 10.6907 11.8519 10.2719 12.7179 10.9287Z" fill="#171717"/>
<path d="M5.09499 14.9216C4.86659 14.9216 4.64771 14.9216 4.40979 14.9216C4.40979 14.6837 4.40979 14.4505 4.40979 14.203C4.63819 14.203 4.85707 14.203 5.09499 14.203C5.09499 14.4457 5.09499 14.6789 5.09499 14.9216Z" fill="#171717"/>
<path d="M12.3657 6.33594C12.6036 6.33594 12.8273 6.33594 13.0747 6.33594C13.0747 6.56438 13.0747 6.79282 13.0747 7.03079C12.8368 7.03079 12.6132 7.03079 12.3657 7.03079C12.3657 6.80234 12.3657 6.57866 12.3657 6.33594Z" fill="#171717"/>
<path d="M21.0259 14.9977C20.7927 14.9977 20.5739 14.9977 20.3359 14.9977C20.3359 14.7597 20.3359 14.5361 20.3359 14.2981C20.5643 14.2981 20.7832 14.2981 21.0259 14.2981C21.0259 14.517 21.0259 14.7455 21.0259 14.9977Z" fill="#171717"/>
<path d="M12.3608 22.1843C12.6035 22.1843 12.8319 22.1843 13.0746 22.1843C13.0746 22.4223 13.0746 22.646 13.0746 22.8839C12.8319 22.8839 12.6035 22.8839 12.3608 22.8839C12.3608 22.6507 12.3608 22.4318 12.3608 22.1843Z" fill="#171717"/>
</svg>
