<svg width="11" height="29" viewBox="0 0 11 29" fill="none" xmlns="http://www.w3.org/2000/svg">
<path fill-rule="evenodd" clip-rule="evenodd" d="M1.23867 5.6599V13.5438C1.23867 15.9676 3.20073 17.9303 5.62212 17.9303C8.04318 17.9303 10.0056 15.9667 10.0056 13.5438V5.6599C10.0056 3.2361 8.0435 1.27341 5.62212 1.27341C3.20105 1.27341 1.23867 3.23703 1.23867 5.6599ZM0.362061 5.6599C0.362061 2.75298 2.71644 0.396484 5.62212 0.396484C8.52716 0.396484 10.8822 2.7518 10.8822 5.6599V13.5438C10.8822 16.4508 8.52779 18.8073 5.62212 18.8073C2.71707 18.8073 0.362061 16.4519 0.362061 13.5438V5.6599Z" fill="#171717"/>
<path fill-rule="evenodd" clip-rule="evenodd" d="M5.18396 3.46508V5.2183C5.18396 5.46047 5.38026 5.65677 5.62243 5.65677C5.8646 5.65677 6.0609 5.46047 6.0609 5.2183V3.46508C6.0609 3.22291 5.8646 3.02661 5.62243 3.02661C5.38026 3.02661 5.18396 3.22291 5.18396 3.46508Z" fill="#171717"/>
<path fill-rule="evenodd" clip-rule="evenodd" d="M5.62217 23.6258L8.03314 21.2152C8.20406 21.0439 8.4817 21.0439 8.65293 21.2152C8.82416 21.3861 8.82416 21.6637 8.65293 21.8349L5.93222 24.5557C5.8466 24.6413 5.73439 24.6841 5.62218 24.6841C5.50996 24.6841 5.39775 24.6413 5.31214 24.5557L2.57068 21.8142C2.39945 21.643 2.39945 21.3653 2.57068 21.1941C2.74191 21.0232 3.01924 21.0232 3.19047 21.1941L5.62217 23.6258Z" fill="#171717"/>
<path fill-rule="evenodd" clip-rule="evenodd" d="M5.62217 27.9417L8.03314 25.5311C8.20406 25.3598 8.4817 25.3598 8.65293 25.5311C8.82416 25.702 8.82416 25.9796 8.65293 26.1509L5.93222 28.8716C5.8466 28.9572 5.73439 29 5.62218 29C5.50996 29 5.39775 28.9572 5.31214 28.8716L2.57068 26.1301C2.39945 25.9589 2.39945 25.6813 2.57068 25.51C2.74191 25.3391 3.01924 25.3391 3.19047 25.51L5.62217 27.9417Z" fill="#171717"/>
</svg>
