<svg width="35" height="23" viewBox="0 0 35 23" fill="none" xmlns="http://www.w3.org/2000/svg">
<path d="M11.4957 14.2394C11.4234 13.6974 10.9537 13.2635 10.4114 13.2635H7.59237L7.3032 9.39625C8.09832 9.86617 8.96584 10.119 9.90539 10.119H11.8209C12.3269 10.119 12.7244 9.72145 12.7244 9.21548C12.7244 8.70951 12.3269 8.31194 11.8209 8.31194H9.90539C9.25497 8.31194 8.64031 8.13118 8.13439 7.76993L6.32732 6.57726C6.0021 6.32414 5.56822 6.17969 5.13465 6.17969H4.80944C4.15902 6.17969 3.58069 6.46885 3.1468 6.93879C2.71318 7.4087 2.53243 8.05911 2.64083 8.70978L3.54437 14.5286C3.61672 15.0706 4.08639 15.4682 4.62868 15.4682H9.47157L10.122 21.4677C10.1943 22.046 10.664 22.4436 11.2063 22.4436H11.3147C11.9291 22.3713 12.3627 21.8292 12.2906 21.2509L11.4957 14.2394Z" fill="#171717"/>
<path d="M7.95382 16.3717H4.26758C3.43639 16.3717 2.74964 15.7934 2.60495 14.9622L1.62906 8.78184C1.55671 8.38427 1.19544 8.13143 0.797871 8.16747C0.400302 8.23983 0.111119 8.60109 0.183499 8.99866L1.15938 15.1426C1.4125 16.6966 2.71334 17.7809 4.26755 17.7809L7.95379 17.7812C8.35136 17.7812 8.67655 17.4559 8.67655 17.0584C8.6768 16.6969 8.35134 16.3716 7.95379 16.3716L7.95382 16.3717Z" fill="#171717"/>
<path d="M19.9168 10.9865H9.79723C9.39966 10.9865 9.07446 11.3117 9.07446 11.7092C9.07446 12.1068 9.39968 12.432 9.79723 12.432H15.3992V21.1059H14.2426C13.845 21.1059 13.5198 21.4312 13.5198 21.8287C13.5198 22.2263 13.845 22.5515 14.2426 22.5515H19.8806C20.2781 22.5515 20.6033 22.2263 20.6033 21.8287V11.7091C20.6757 11.3115 20.3505 10.9863 19.9168 10.9863V10.9865Z" fill="#171717"/>
<path d="M7.30315 3.14395C7.30315 4.46143 6.23524 5.52935 4.91775 5.52935C3.60052 5.52935 2.53235 4.46143 2.53235 3.14395C2.53235 1.82646 3.60052 0.758545 4.91775 0.758545C6.23524 0.758545 7.30315 1.82646 7.30315 3.14395Z" fill="#171717"/>
<path d="M30.1446 15.4682C30.6866 15.4682 31.1566 15.0706 31.2289 14.5286L32.1325 8.70978C32.2409 8.05937 32.0241 7.40869 31.6265 6.93879C31.1929 6.46887 30.6145 6.17969 29.9639 6.17969H29.6386C29.205 6.17969 28.8075 6.36045 28.446 6.57726C27.6148 7.08322 27.5064 8.60111 27.434 9.39629C27.3256 10.2277 27.1088 13.2636 27.1088 13.2636H24.2898C23.7477 13.2636 23.2778 13.6972 23.2055 14.2394L22.4464 21.2147C22.374 21.8291 22.8079 22.3714 23.4222 22.4074H23.5306C24.0727 22.4074 24.5426 21.9738 24.615 21.4315L25.3017 15.4683L30.1446 15.4682Z" fill="#171717"/>
<path d="M33.9034 8.20388C33.5058 8.13152 33.1443 8.42069 33.0722 8.81825L32.0963 14.9622C31.9518 15.7934 31.2651 16.3718 30.4337 16.3718L26.7474 16.372C26.3499 16.372 26.0247 16.6972 26.0247 17.0948C26.0247 17.4923 26.3499 17.8175 26.7474 17.8175H30.4339C31.9879 17.8175 33.289 16.6972 33.5421 15.1793L34.518 9.03529C34.5538 8.63772 34.3009 8.24017 33.9033 8.20384L33.9034 8.20388Z" fill="#171717"/>
<path d="M32.1685 3.14395C32.1685 4.46143 31.1003 5.52935 29.7831 5.52935C28.4656 5.52935 27.3977 4.46143 27.3977 3.14395C27.3977 1.82646 28.4656 0.758545 29.7831 0.758545C31.1003 0.758545 32.1685 1.82646 32.1685 3.14395Z" fill="#171717"/>
</svg>
