<svg width="30" height="25" viewBox="0 0 30 25" fill="none" xmlns="http://www.w3.org/2000/svg">
<path d="M0.965332 21.7979C1.14389 21.5643 1.27781 21.275 1.50658 21.1192C1.72978 20.969 2.04225 20.9468 2.32125 20.9079C2.53328 20.8745 2.7509 20.9023 2.90714 20.9023C2.87924 20.4072 2.8346 19.9288 2.8346 19.4503C2.82902 16.0291 2.82902 12.6078 2.82902 9.181C2.82902 8.72483 2.95736 8.53013 3.25309 8.52456C3.56557 8.519 3.69948 8.71927 3.69948 9.18656C3.69948 12.7747 3.69948 16.3684 3.69948 19.9566C3.69948 20.6742 3.92268 20.8967 4.63133 20.8967C11.768 20.8967 18.9047 20.8967 26.0414 20.8967C26.7389 20.8967 26.9621 20.6742 26.9621 19.9733C26.9621 15.2725 26.9621 10.5718 26.9621 5.871C26.9621 5.15894 26.7389 4.94754 26.0191 4.94754C25.3662 4.94754 24.7134 4.94754 24.0382 4.94754C24.0382 5.23126 24.0382 5.49272 24.0382 5.78756C24.5627 5.78756 25.0873 5.78756 25.6062 5.78756C25.9968 5.78756 26.1474 5.9322 26.1474 6.32717C26.1474 10.722 26.1474 15.1112 26.1474 19.506C26.1474 19.9121 25.9968 20.0567 25.5839 20.0567C18.7485 20.0567 11.9075 20.0567 5.07214 20.0567C4.66481 20.0567 4.51415 19.9121 4.51415 19.506C4.51415 15.1112 4.51415 10.722 4.51415 6.32717C4.51415 5.9322 4.66481 5.78756 5.06098 5.78756C5.57433 5.78756 6.08768 5.78756 6.62335 5.78756C6.62335 5.50941 6.62335 5.24794 6.62335 4.94754C6.31088 4.94754 5.9984 4.94754 5.68035 4.94754C5.28976 4.94754 4.89358 4.94198 4.50299 4.94754C3.97848 4.95867 3.70506 5.22013 3.70506 5.74305C3.69948 6.17141 3.70506 6.59976 3.70506 7.02811C3.69948 7.36189 3.52651 7.57329 3.26983 7.57329C3.01316 7.57329 2.8346 7.36189 2.8346 7.02811C2.84018 6.47737 2.81786 5.92663 2.87924 5.38146C2.96294 4.64714 3.61579 4.11865 4.35791 4.11309C5.08888 4.10752 5.81427 4.11309 6.54524 4.10752C6.56198 4.10752 6.57871 4.10196 6.62893 4.09084C6.66799 3.72924 6.53408 3.24526 6.94141 3.04499C7.27062 2.8781 7.68354 2.86697 8.09087 2.78352C8.09087 2.17715 8.09087 1.52628 8.09087 0.88097C8.09087 0.196718 8.53726 -0.120374 9.19011 0.10771C11.1654 0.786399 13.1351 1.47065 15.1104 2.14378C15.2443 2.18828 15.4229 2.18828 15.5624 2.14378C16.5109 1.82668 17.4484 1.49847 18.3914 1.17025C18.4416 1.15356 18.4974 1.13131 18.5476 1.11462C18.8154 1.0423 19.0331 1.148 19.1112 1.38721C19.1837 1.60416 19.0833 1.82668 18.8266 1.92126C18.3969 2.08258 17.9673 2.22722 17.5321 2.37186C17.0299 2.54431 16.5277 2.72233 16.0255 2.88366C15.8246 2.94485 15.7577 3.03942 15.7577 3.25638C15.7632 5.86544 15.7632 8.48006 15.7632 11.0891C15.7632 11.6399 15.7632 12.1906 15.7632 12.7413C15.7632 12.8303 15.7632 12.9249 15.7632 13.0529C15.9362 12.9972 16.0646 12.9583 16.1929 12.9138C17.9617 12.3019 19.7361 11.6899 21.505 11.0836C21.6612 11.0279 21.7282 10.9723 21.7282 10.7943C21.7226 7.55104 21.7226 4.30223 21.7226 1.05899C21.7226 1.03117 21.717 1.00336 21.7114 0.942164C21.3208 1.07568 20.9414 1.20919 20.5564 1.32601C20.2104 1.43171 19.9147 1.1925 19.9984 0.864281C20.0319 0.736332 20.1658 0.58613 20.2885 0.536063C20.7182 0.358046 21.159 0.207845 21.6054 0.074332C22.102 -0.0814327 22.5596 0.263475 22.5651 0.786399C22.5707 1.38164 22.5651 1.98245 22.5651 2.57769C22.5651 2.6667 22.5651 2.76127 22.5651 2.79465C22.9781 2.88366 23.391 2.89478 23.7202 3.06168C24.1108 3.26194 23.988 3.72924 24.0271 4.12978C24.719 4.12978 25.4053 4.16315 26.0805 4.11865C27.0402 4.05746 27.8381 4.74727 27.8326 5.871C27.8158 10.5829 27.827 15.2892 27.8214 20.0011C27.8214 20.2959 27.7544 20.5852 27.7154 20.9134C27.9553 20.9134 28.2176 20.9134 28.4854 20.9134C29.1717 20.919 29.6907 21.4308 29.6907 22.115C29.6963 22.5323 29.6963 22.955 29.6907 23.3723C29.6851 24.0231 29.1606 24.5461 28.5133 24.5461C25.941 24.5516 23.3686 24.5461 20.7963 24.5461C20.4894 24.5461 20.3164 24.3847 20.322 24.1233C20.322 23.8618 20.495 23.7116 20.8075 23.7116C23.2961 23.7116 25.7847 23.7116 28.2734 23.7116C28.7421 23.7116 28.8537 23.6004 28.8537 23.1442C28.8537 22.8549 28.8537 22.5656 28.8537 22.2764C28.8537 21.8814 28.7253 21.7534 28.3348 21.7534C27.1016 21.7534 25.8629 21.7534 24.6297 21.7534C22.593 21.7534 20.5508 21.7534 18.5141 21.7534C18.4137 21.7534 18.3132 21.7534 18.2017 21.7534C18.1793 21.937 18.1682 22.1039 18.1403 22.2652C18.0398 22.7603 17.6325 23.0941 17.1247 23.0941C15.9641 23.0997 14.8035 23.0941 13.6429 23.0941C12.9342 23.0941 12.5046 22.688 12.4823 21.9815C12.4823 21.9148 12.4767 21.8536 12.4711 21.7479C12.3707 21.7479 12.2702 21.7479 12.1698 21.7479C8.90553 21.7479 5.64129 21.7479 2.37705 21.7479C1.91392 21.7479 1.8079 21.8591 1.8079 22.3264C1.8079 22.6324 1.80232 22.9439 1.8079 23.2499C1.81348 23.5559 1.94739 23.6949 2.24871 23.7061C2.32125 23.7116 2.39937 23.7061 2.47191 23.7061C7.90673 23.7061 13.3416 23.7061 18.7764 23.7061C19.1335 23.7061 19.3009 23.8284 19.3176 24.0899C19.3344 24.3347 19.1781 24.5238 18.927 24.5405C18.8322 24.5461 18.7373 24.5405 18.648 24.5405C13.269 24.5405 7.88999 24.5294 2.51097 24.5516C1.78 24.5516 1.25549 24.3347 0.965332 23.6449C0.965332 23.0274 0.965332 22.4099 0.965332 21.7979ZM5.39578 19.2056C12.0359 19.2056 18.648 19.2056 25.2547 19.2056C25.2547 15.0111 25.2547 10.8277 25.2547 6.64983C24.8362 6.64983 24.4344 6.64983 24.0159 6.64983C24.0159 6.77778 24.0159 6.88904 24.0159 6.99473C24.0159 9.02524 24.0159 11.0613 24.0159 13.0918C24.0159 13.2031 24.0159 13.3143 23.9992 13.4256C23.9322 13.8261 23.6532 14.0709 23.2459 14.0709C17.9729 14.0709 12.6943 14.0709 7.42128 14.0709C7.01395 14.0709 6.73495 13.8317 6.66799 13.4256C6.65125 13.3143 6.65125 13.2031 6.65125 13.0918C6.65125 11.0502 6.65125 9.00855 6.65125 6.96692C6.65125 6.86122 6.65125 6.75552 6.65125 6.64983C6.21044 6.64983 5.80869 6.64983 5.40135 6.64983C5.39577 10.8388 5.39578 15.0111 5.39578 19.2056ZM8.95017 0.925475C8.93901 0.981105 8.93343 0.997794 8.93343 1.01448C8.93343 4.27442 8.93343 7.53991 8.92785 10.7998C8.92785 10.9667 9.00039 11.0168 9.13989 11.0669C10.9924 11.7011 12.8394 12.3408 14.6863 12.975C14.7421 12.9972 14.8035 12.9972 14.876 13.0139C14.8816 12.9472 14.8928 12.9027 14.8928 12.8582C14.8928 9.63161 14.8928 6.40505 14.8983 3.18406C14.8983 3.00605 14.8202 2.94485 14.6752 2.89478C13.8605 2.6222 13.057 2.33848 12.2423 2.06033C11.1542 1.68205 10.0606 1.30932 8.95017 0.925475ZM12.7501 13.2198C12.5939 13.1641 12.5102 13.1307 12.4265 13.1029C11.1933 12.6801 9.96014 12.2518 8.72698 11.829C8.24153 11.6621 8.09087 11.4563 8.09087 10.9445C8.09087 8.65251 8.09087 6.36055 8.09087 4.06858C8.09087 3.95732 8.09087 3.85162 8.09087 3.7348C7.88441 3.7348 7.71702 3.7348 7.53288 3.7348C7.53288 6.90573 7.53288 10.0544 7.53288 13.2198C9.25707 13.2198 10.9589 13.2198 12.7501 13.2198ZM23.1287 13.2253C23.1287 10.0433 23.1287 6.88904 23.1287 3.7348C22.939 3.7348 22.766 3.7348 22.5763 3.7348C22.5763 3.85162 22.5763 3.95732 22.5763 4.05746C22.5763 6.34942 22.5763 8.64139 22.5763 10.9334C22.5763 11.4618 22.4312 11.6621 21.9234 11.8346C20.6847 12.2629 19.4404 12.6913 18.2017 13.1196C18.1403 13.1419 18.0845 13.1753 17.984 13.2253C19.7305 13.2253 21.4157 13.2253 23.1287 13.2253ZM13.375 21.7479C13.336 22.2096 13.3639 22.243 13.7935 22.243C14.8314 22.243 15.8637 22.243 16.9015 22.243C17.3033 22.243 17.3591 22.1707 17.2754 21.7479C15.9809 21.7479 14.6863 21.7479 13.375 21.7479Z" fill="#171717"/>
<path d="M15.3336 15.2559C17.108 15.2559 18.8825 15.2559 20.6624 15.2559C20.774 15.2559 20.8912 15.2614 20.9917 15.2892C21.1925 15.3504 21.3265 15.5118 21.2707 15.712C21.2316 15.8567 21.0865 15.9846 20.9582 16.0848C20.8912 16.1404 20.7629 16.1181 20.6569 16.1181C17.108 16.1181 13.5537 16.1181 10.0048 16.1181C9.90439 16.1181 9.77048 16.1348 9.70352 16.0848C9.57518 15.9846 9.43568 15.8567 9.39662 15.712C9.34082 15.5118 9.46916 15.3504 9.67562 15.2948C9.78164 15.2614 9.89323 15.2614 10.0048 15.2614C11.7848 15.2559 13.5592 15.2559 15.3336 15.2559Z" fill="#171717"/>
<path d="M13.3865 17.8927C12.2761 17.8927 11.1657 17.8927 10.0498 17.8927C9.95491 17.8927 9.86005 17.8982 9.77077 17.8871C9.53083 17.8593 9.39692 17.7258 9.38576 17.4866C9.3746 17.2418 9.51409 17.1083 9.73729 17.0527C9.80983 17.036 9.88795 17.0471 9.96049 17.0471C12.2482 17.0471 14.536 17.0471 16.8293 17.0471C16.8963 17.0471 16.9633 17.0415 17.0246 17.0527C17.2534 17.0972 17.3873 17.2362 17.3985 17.4699C17.4097 17.6868 17.2367 17.876 16.9967 17.8871C16.6341 17.8982 16.2658 17.8927 15.9031 17.8927C15.0661 17.8927 14.2235 17.8927 13.3865 17.8927Z" fill="#171717"/>
</svg>
