<svg width="21" height="21" viewBox="0 0 21 21" fill="none" xmlns="http://www.w3.org/2000/svg">
<path d="M16.8023 20.9836V12.4976C16.8023 12.4976 16.5668 10.2275 14.5089 10.2275C12.4523 10.2275 12.0761 12.3856 12.0761 12.3856V20.9836H7.83744L7.90657 6.96585H12.007L11.9737 8.72782C11.9737 8.72782 12.8286 6.42497 16.0498 6.42497C19.2697 6.42497 20.7287 8.40002 21 12.0933C21 15.7879 21 20.9836 21 20.9836H16.8023ZM2.63893 4.97446C1.18252 4.97446 0 3.86263 0 2.48861C0 1.11458 1.18252 0 2.63893 0C4.09535 0 5.27787 1.11454 5.27787 2.48861C5.27787 3.86268 4.09531 4.97446 2.63893 4.97446ZM5.25481 21H0.0435331V7.00138L5.25481 6.96585V21Z" fill="#171717"/>
</svg>
