<svg width="27" height="26" viewBox="0 0 27 26" fill="none" xmlns="http://www.w3.org/2000/svg">
<path d="M18.982 23.108H2.85513V3.71211H5.33415V4.5294C5.33415 5.04704 5.77005 5.48295 6.28769 5.48295C6.80533 5.48295 7.24124 5.04704 7.24124 4.5294V3.71211H9.99257V4.5294C9.99257 5.04704 10.4285 5.48295 10.9461 5.48295C11.4638 5.48295 11.8997 5.04704 11.8997 4.5294V3.71211H14.651V4.5294C14.651 5.04704 15.0869 5.48295 15.6045 5.48295C16.1222 5.48295 16.5581 5.04704 16.5581 4.5294V3.71211H19.0371V12.838L20.944 10.9311L20.9436 3.24905C20.9436 2.45915 20.3171 1.80526 19.4998 1.80526H16.5305V0.98797C16.5305 0.470335 16.0946 0.0344238 15.577 0.0344238C15.0593 0.0344238 14.6234 0.47033 14.6234 0.98797V1.80526H11.8721V0.98797C11.8721 0.470335 11.4362 0.0344238 10.9185 0.0344238C10.4009 0.0344238 9.965 0.47033 9.965 0.98797V1.80526H7.21386V0.98797C7.21386 0.470335 6.77796 0.0344238 6.26031 0.0344238C5.74267 0.0344238 5.30677 0.47033 5.30677 0.98797V1.80526H2.39204C1.60213 1.80526 0.948242 2.43176 0.948242 3.24905V23.5711C0.948242 24.361 1.57475 25.0149 2.39204 25.0149H19.4724C20.2623 25.0149 20.9162 24.3611 20.9162 23.5711V19.5121L19.0093 21.419V23.1081L18.982 23.108Z" fill="#171717"/>
<path d="M16.2303 14.0912C16.2303 13.5736 15.7944 13.1377 15.2767 13.1377H6.58673C6.06909 13.1377 5.63318 13.5736 5.63318 14.0912C5.63318 14.6089 6.06909 15.0448 6.58673 15.0448H15.2767C15.7942 15.0446 16.2301 14.6087 16.2301 14.0912H16.2303Z" fill="#171717"/>
<path d="M6.58734 10.2775H15.2773C15.795 10.2775 16.2309 9.84155 16.2309 9.32391C16.2309 8.80627 15.795 8.37036 15.2773 8.37036L6.58734 8.37055C6.0697 8.37055 5.63379 8.80646 5.63379 9.3241C5.63379 9.84154 6.04233 10.2775 6.58734 10.2775V10.2775Z" fill="#171717"/>
<path d="M5.63379 18.8583C5.63379 19.4031 6.04233 19.8118 6.58733 19.8118H13.7246L14.106 18.1229C14.1331 18.0412 14.1331 17.9595 14.1605 17.905L6.58738 17.9048C6.0424 17.9048 5.63383 18.3407 5.63383 18.8583L5.63379 18.8583Z" fill="#171717"/>
<path d="M15.5771 21.1194L17.6747 20.6564C17.7564 20.6292 17.8382 20.5747 17.9199 20.5201L18.5464 19.8663L16.2307 17.5507L15.6042 18.1772C15.5225 18.2589 15.4954 18.3134 15.468 18.4223L14.9777 20.5475C14.896 20.9017 15.2231 21.2012 15.5771 21.1195L15.5771 21.1194Z" fill="#171717"/>
<path d="M17.048 16.7608L19.3362 19.0762L24.7845 13.6279L22.4963 11.3125L17.048 16.7608Z" fill="#171717"/>
<path d="M26.6641 11.0675L25.0569 9.43288C24.839 9.2421 24.5393 9.2421 24.3487 9.43288L23.2592 10.5224L25.5748 12.8381L26.6643 11.7485C26.8821 11.5577 26.8821 11.2581 26.6641 11.0675H26.6641Z" fill="#171717"/>
</svg>
