<svg width="24" height="18" viewBox="0 0 24 18" fill="none" xmlns="http://www.w3.org/2000/svg">
<path d="M23.3619 17.4656C23.0971 17.4656 22.8701 17.4656 22.6006 17.4656C22.6006 17.38 22.6006 17.2991 22.6006 17.2134C22.6006 16.1905 22.6006 15.1723 22.6006 14.1494C22.6006 13.3501 22.1277 12.8743 21.3285 12.8743C20.0754 12.8743 18.8222 12.8743 17.569 12.8743C17.1813 12.8743 16.8171 12.96 16.4719 13.136C15.9517 13.4024 15.4221 13.6594 14.9019 13.9306C14.7128 14.0305 14.5378 14.04 14.3392 13.9496C13.7623 13.6879 13.1759 13.4453 12.5942 13.1979C12.5138 13.1646 12.4382 13.136 12.3199 13.0884C12.3199 13.4357 12.3152 13.7498 12.3247 14.0638C12.3247 14.1114 12.3956 14.178 12.4524 14.2018C13.1333 14.5015 13.8143 14.7965 14.5047 15.0819C14.5898 15.1152 14.708 15.1105 14.7932 15.0819C15.4174 14.8821 16.0369 14.668 16.6611 14.4587C17.063 14.3255 17.2664 14.4777 17.2664 14.9059C17.2664 15.748 17.2664 16.5949 17.2664 17.4561C17.011 17.4561 16.7746 17.4561 16.5098 17.4561C16.5098 16.7567 16.5098 16.0573 16.5098 15.3341C15.9707 15.5149 15.4552 15.6671 14.9539 15.8575C14.6939 15.9526 14.4763 15.9336 14.2257 15.8242C13.4454 15.4721 12.6604 15.139 11.8707 14.806C11.6532 14.7156 11.5491 14.5824 11.5539 14.335C11.5633 13.745 11.5539 13.155 11.5586 12.5651C11.5586 12.1797 11.8045 12.0179 12.1592 12.1702C12.9158 12.4937 13.6677 12.8267 14.429 13.1408C14.5189 13.1788 14.6608 13.1693 14.7506 13.1265C15.1904 12.9219 15.6207 12.7078 16.0463 12.4842C16.4719 12.2606 16.9164 12.1036 17.4508 12.1131C17.011 11.5564 16.8077 10.9522 16.9023 10.2766C16.9921 9.60573 17.3279 9.06334 17.8859 8.67796C18.7796 8.0642 19.9619 8.16888 20.7516 8.91585C21.4136 9.54388 21.8629 10.8142 20.9218 12.0893C21.2528 12.1131 21.5839 12.1036 21.9054 12.1702C22.7377 12.3415 23.3525 13.1265 23.3572 13.9829C23.3619 15.0819 23.3572 16.1857 23.3572 17.2848C23.3619 17.3371 23.3619 17.3895 23.3619 17.4656ZM20.6996 10.5763C20.6948 9.74846 20.0091 9.05382 19.1863 9.04907C18.3588 9.04431 17.6542 9.74846 17.6589 10.5858C17.6636 11.4184 18.3729 12.1226 19.1958 12.1131C20.0139 12.0988 20.6996 11.3994 20.6996 10.5763Z" fill="#171717"/>
<path d="M6.84878 12.0892C7.16088 12.1129 7.48245 12.0987 7.7851 12.1605C8.65995 12.3366 9.2747 13.1121 9.27943 14.0065C9.28416 15.0913 9.27943 16.1761 9.27943 17.2609C9.27943 17.3227 9.27943 17.3846 9.27943 17.4607C9.02407 17.4607 8.78763 17.4607 8.51808 17.4607C8.51808 17.3798 8.51808 17.2942 8.51808 17.2085C8.51808 16.1951 8.51808 15.1817 8.51808 14.1683C8.51808 13.3452 8.04992 12.8742 7.23655 12.8742C5.80369 12.8742 4.3661 12.8742 2.93324 12.8742C2.13879 12.8742 1.66589 13.35 1.66589 14.154C1.66589 15.2483 1.66589 16.3379 1.66589 17.4464C1.41526 17.4464 1.17409 17.4464 0.913999 17.4464C0.90927 17.3751 0.904541 17.2942 0.904541 17.2181C0.904541 16.1571 0.904541 15.0961 0.904541 14.0351C0.904541 12.936 1.73683 12.1034 2.83393 12.1034C2.99945 12.1034 3.16496 12.1034 3.37303 12.1034C2.86704 11.4611 2.68734 10.7665 2.87649 10.0005C3.00418 9.47238 3.3021 9.04417 3.73716 8.72065C4.60255 8.07359 5.79423 8.12592 6.6076 8.84911C7.52028 9.66745 7.60067 10.7617 6.84878 12.0892ZM3.57164 10.5714C3.56692 11.3945 4.24788 12.0939 5.07071 12.1082C5.89354 12.1225 6.6076 11.4183 6.61233 10.5857C6.61706 9.7626 5.9361 9.06321 5.11327 9.04893C4.28571 9.03466 3.57637 9.73881 3.57164 10.5714Z" fill="#171717"/>
<path d="M1.10328 8.61601C0.966144 8.39239 0.843193 8.18305 0.706055 7.95943C0.795904 7.90234 0.871566 7.85476 0.951958 7.80719C3.99737 5.96592 7.04752 4.12941 10.0929 2.28815C10.4334 2.08357 10.5753 2.10735 10.8117 2.42613C11.0907 2.80199 11.3745 3.1731 11.6582 3.55848C12.4621 3.0494 13.2566 2.55459 14.0605 2.0455C13.8902 1.78383 13.7295 1.53642 13.5639 1.29853C13.4646 1.15104 13.4174 0.99879 13.5072 0.832267C13.6065 0.651472 13.7578 0.622925 13.9375 0.622925C14.6421 0.627683 15.3467 0.622925 16.0561 0.622925C16.4344 0.622925 16.5904 0.837025 16.4722 1.19862C16.2405 1.91704 15.9946 2.63071 15.7629 3.34914C15.7061 3.52042 15.621 3.65364 15.4319 3.68218C15.2333 3.71073 15.1056 3.61082 15.0015 3.44905C14.8408 3.19689 14.6705 2.94473 14.4955 2.68305C13.6396 3.22068 12.7931 3.75355 11.9514 4.28166C11.5352 4.54334 11.4265 4.52431 11.1286 4.12941C10.8637 3.77258 10.5989 3.4205 10.3199 3.0494C7.24613 4.90969 4.1818 6.76047 1.10328 8.61601ZM15.2569 2.42613C15.3798 2.05502 15.4839 1.73149 15.5926 1.4032C15.2474 1.4032 14.9306 1.4032 14.5807 1.4032C14.8077 1.75052 15.0157 2.06929 15.2569 2.42613Z" fill="#171717"/>
<path d="M3.17463 17.4606C2.924 17.4606 2.69228 17.4606 2.44165 17.4606C2.44165 16.4425 2.44165 15.4386 2.44165 14.4204C2.68755 14.4204 2.91927 14.4204 3.17463 14.4204C3.17463 15.4291 3.17463 16.433 3.17463 17.4606Z" fill="#171717"/>
<path d="M7.74241 17.4654C7.49178 17.4654 7.26479 17.4654 7.01416 17.4654C7.01416 16.4567 7.01416 15.4481 7.01416 14.4252C7.24588 14.4252 7.48705 14.4252 7.74241 14.4252C7.74241 15.4338 7.74241 16.4377 7.74241 17.4654Z" fill="#171717"/>
<path d="M21.8304 14.4252C21.8304 15.4433 21.8304 16.4425 21.8304 17.4559C21.5845 17.4559 21.3528 17.4559 21.0974 17.4559C21.0974 16.4567 21.0974 15.4481 21.0974 14.4252C21.3291 14.4252 21.5703 14.4252 21.8304 14.4252Z" fill="#171717"/>
</svg>
