<svg width="28" height="24" viewBox="0 0 28 24" fill="none" xmlns="http://www.w3.org/2000/svg">
<path d="M24.7786 14.0772C24.8737 14.0825 24.953 14.0825 25.027 14.0984C25.2173 14.1354 25.4023 14.1777 25.5925 14.2147C24.8473 18.8242 20.8091 23.3015 15.1111 23.8671C8.17111 24.5596 2.40977 19.3264 2.01335 12.8667C1.74907 12.8667 1.47422 12.8931 1.20465 12.8561C1.05137 12.835 0.866369 12.7504 0.771227 12.6341C0.639087 12.4755 0.713085 12.2852 0.834655 12.1267C1.23636 11.598 1.6275 11.0641 2.02921 10.5355C2.25649 10.2395 2.57363 10.2448 2.80091 10.5461C3.19733 11.0694 3.58847 11.598 3.9796 12.1161C4.10117 12.2747 4.15932 12.4385 4.06417 12.6341C3.96903 12.8297 3.80518 12.8773 3.59904 12.872C3.37176 12.8667 3.13919 12.872 2.91191 12.872C3.02819 16.6093 5.819 21.536 11.4588 22.8046C17.6377 24.1896 23.6474 20.151 24.7786 14.0772Z" fill="#171717"/>
<path d="M25.7988 11.1645C26.0895 11.1645 26.3697 11.1381 26.6392 11.1751C26.7872 11.1962 26.9775 11.2861 27.0357 11.4024C27.0938 11.5187 27.0727 11.746 26.9934 11.8623C26.5969 12.4279 26.1794 12.9777 25.7618 13.5274C25.5557 13.797 25.2438 13.797 25.0377 13.5274C24.6148 12.9777 24.1973 12.4279 23.8061 11.8623C23.7269 11.746 23.7004 11.524 23.7586 11.4024C23.8167 11.2861 24.007 11.191 24.155 11.1698C24.3981 11.1328 24.6466 11.1592 24.895 11.1592C24.7734 7.50123 22.0883 2.61685 16.5542 1.26889C10.2326 -0.258804 4.12773 3.89609 3.02832 9.95928C2.76404 9.91171 2.49976 9.86413 2.23547 9.81656C2.75347 5.96297 6.18913 1.21603 11.8923 0.269809C15.3386 -0.306379 18.4994 0.465396 21.2585 2.62214C24.0123 4.77888 25.4764 7.65982 25.7988 11.1645Z" fill="#171717"/>
<path d="M10.1479 14.0188C10.1109 13.9396 10.0898 13.9078 10.0845 13.8761C9.97877 13.4109 9.71448 13.2154 9.22292 13.2841C8.9745 13.3158 8.80536 13.1308 8.80536 12.877C8.80007 12.3114 8.80007 11.7405 8.80536 11.1749C8.81064 10.9053 8.96921 10.752 9.23878 10.7414C9.43435 10.7362 9.62991 10.7414 9.83605 10.7414C9.92062 10.5459 10.0052 10.3556 10.0739 10.16C10.0898 10.1071 10.0633 10.0331 10.0369 9.98025C10.0211 9.94324 9.97877 9.91681 9.94705 9.8851C9.42906 9.3512 9.42906 9.2719 9.94705 8.75386C10.2483 8.45255 10.5443 8.15124 10.8509 7.85522C11.094 7.62263 11.3055 7.61735 11.5433 7.84994C11.6755 7.9768 11.7917 8.12481 11.9133 8.25697C11.982 8.22525 12.0137 8.20411 12.0454 8.19882C12.5106 8.0931 12.7062 7.82879 12.6374 7.34247C12.6004 7.08345 12.796 6.92486 13.0709 6.92486C13.6311 6.91958 14.1861 6.91958 14.7464 6.92486C15.016 6.93015 15.1693 7.08873 15.1798 7.35833C15.1851 7.55391 15.1798 7.7495 15.1798 7.95566C15.3754 8.04024 15.5657 8.12481 15.7612 8.19353C15.8141 8.20939 15.8987 8.19353 15.941 8.15653C16.052 8.06667 16.1471 7.96094 16.2528 7.86579C16.5171 7.62263 16.7179 7.61735 16.9664 7.86051C17.3417 8.22525 17.7116 8.59528 18.0764 8.97059C18.3142 9.21376 18.3089 9.41992 18.0816 9.66837C18.0182 9.74237 17.9442 9.8058 17.8755 9.87452C17.8121 9.93796 17.7539 10.0014 17.6852 10.0701C17.7011 10.1071 17.7222 10.1335 17.7275 10.1653C17.8332 10.6304 18.0975 10.826 18.5891 10.7573C18.8375 10.7256 19.0066 10.9106 19.0066 11.1643C19.0119 11.73 19.0119 12.3009 19.0066 12.8665C19.0013 13.1361 18.8428 13.2894 18.5732 13.2999C18.3776 13.3052 18.1821 13.2999 17.9759 13.2999C17.8914 13.4955 17.8068 13.6858 17.7381 13.8814C17.7222 13.929 17.7381 14.0188 17.7751 14.0611C17.8649 14.1721 17.9706 14.2673 18.0658 14.373C18.3089 14.6373 18.3142 14.8382 18.0658 15.0866C17.7011 15.462 17.3311 15.832 16.9558 16.1967C16.7127 16.4346 16.5012 16.4346 16.2634 16.1967C16.1312 16.0699 16.015 15.9219 15.8987 15.7844C15.8194 15.8214 15.793 15.8373 15.7612 15.8479C15.2961 15.9536 15.1005 16.2179 15.1693 16.7042C15.2063 16.9527 15.016 17.1218 14.7623 17.1218C14.1967 17.1271 13.6259 17.1271 13.0603 17.1218C12.7907 17.1165 12.6374 16.9579 12.6269 16.6883C12.6216 16.4928 12.6269 16.2972 12.6269 16.091C12.4313 16.0064 12.241 15.9166 12.0454 15.8531C11.9926 15.832 11.8975 15.8637 11.8499 15.906C11.7283 16.0064 11.6226 16.128 11.501 16.2337C11.2843 16.4135 11.0835 16.4135 10.8826 16.2179C10.4809 15.832 10.0845 15.4355 9.69863 15.0338C9.50306 14.8329 9.51363 14.632 9.69334 14.4206C9.76206 14.3413 9.83605 14.262 9.91534 14.1933C9.98934 14.1246 10.0739 14.0717 10.1479 14.0188ZM16.5752 15.2717C16.7867 15.0655 16.9769 14.8752 17.1567 14.6955C17.0721 14.5739 16.9611 14.4576 16.8977 14.3149C16.6704 13.8127 17.1672 12.6656 17.6852 12.4859C17.8279 12.4383 17.9918 12.433 18.1451 12.4119C18.1451 12.137 18.1451 11.8674 18.1451 11.5872C17.6482 11.6189 17.3047 11.4339 17.1408 10.9635C17.1038 10.863 17.0774 10.7573 17.0245 10.6674C16.7497 10.1705 16.7285 9.71065 17.1672 9.34062C16.9611 9.13447 16.7761 8.93888 16.5911 8.75386C16.4907 8.82787 16.3955 8.92302 16.2792 8.98645C15.7507 9.28248 14.5191 8.76972 14.3606 8.18296C14.3236 8.05081 14.3288 7.90808 14.313 7.77064C14.0276 7.77064 13.758 7.77064 13.4831 7.77064C13.5149 8.26754 13.3299 8.61114 12.8594 8.77501C12.7696 8.80673 12.6744 8.83316 12.5899 8.88073C12.093 9.15561 11.6173 9.20318 11.242 8.74858C11.0306 8.95474 10.8403 9.13975 10.65 9.32477C10.724 9.41992 10.8192 9.52035 10.8826 9.63136C11.1786 10.16 10.6659 11.3864 10.0792 11.5502C9.94705 11.5872 9.80434 11.5819 9.66691 11.5978C9.66691 11.8833 9.66691 12.1528 9.66691 12.3326C9.95762 12.4594 10.2695 12.5017 10.428 12.6815C10.7505 13.0515 10.9672 13.522 10.9619 14.0241C10.9566 14.262 10.7822 14.4946 10.6923 14.7008C10.8562 14.8699 11.0412 15.0655 11.2315 15.2611C11.4217 15.0602 11.6649 14.8488 11.9609 14.9334C12.3943 15.0602 12.8224 15.2347 13.2136 15.462C13.3563 15.5465 13.3986 15.8214 13.4726 16.0117C13.499 16.0804 13.4831 16.165 13.4884 16.2337C13.7791 16.2337 14.0487 16.2337 14.3288 16.2337C14.276 15.6417 14.572 15.3245 15.0953 15.1712C15.1693 15.1501 15.2433 15.1184 15.3173 15.0814C15.793 14.8382 16.2211 14.8699 16.5752 15.2717Z" fill="#171717"/>
<path d="M12.6321 4.49861C9.85713 4.88978 6.80204 7.19982 6.31047 11.0746C5.82948 14.9017 8.34544 18.6126 12.2938 19.5112C12.241 19.7755 12.1828 20.0345 12.1247 20.3306C10.7398 20.0398 9.52414 19.4425 8.46172 18.5439C6.86018 17.1906 5.85591 15.4779 5.51234 13.4057C4.7195 8.66937 7.9543 4.3136 12.6321 3.5894C12.6321 3.29337 12.6109 2.99206 12.6427 2.69604C12.6585 2.54803 12.7484 2.35773 12.8647 2.29429C12.9809 2.23086 13.2082 2.25201 13.3245 2.3313C13.8901 2.72247 14.4398 3.14536 14.9895 3.56297C15.2696 3.7797 15.2643 4.08629 14.9842 4.30302C14.4451 4.71534 13.9006 5.13295 13.3404 5.51883C13.2188 5.60341 12.9862 5.62456 12.8594 5.56112C12.7484 5.50826 12.6691 5.3021 12.6427 5.15409C12.6004 4.95322 12.6321 4.73649 12.6321 4.49861Z" fill="#171717"/>
<path d="M15.1798 19.5272C18.0077 19.1307 20.8936 16.789 21.4645 13.2103C22.0987 9.21395 19.4401 5.37622 15.5181 4.51458C15.571 4.25027 15.6291 3.99125 15.6873 3.68994C17.0562 3.97539 18.2561 4.56215 19.3079 5.44494C20.9253 6.79819 21.9454 8.51089 22.2943 10.5883C23.0977 15.3723 19.8365 19.7175 15.1798 20.4364C15.1798 20.7324 15.201 21.0337 15.1693 21.3298C15.1534 21.4778 15.0636 21.6681 14.9473 21.7315C14.831 21.7949 14.6037 21.7738 14.4874 21.6945C13.9113 21.2928 13.3563 20.8699 12.8013 20.4417C12.5476 20.2461 12.5529 19.9395 12.8066 19.7386C13.3616 19.3105 13.9166 18.8876 14.4927 18.4858C14.6037 18.4065 14.831 18.396 14.9526 18.4594C15.0636 18.5123 15.1428 18.7026 15.1693 18.84C15.2063 19.062 15.1798 19.284 15.1798 19.5272Z" fill="#171717"/>
<path d="M16.4591 12.0368C16.4538 13.4535 15.3068 14.5741 13.8744 14.5688C12.4737 14.5635 11.3531 13.4164 11.3531 11.9945C11.3584 10.5778 12.5054 9.45713 13.9378 9.46242C15.3385 9.46771 16.4644 10.6148 16.4591 12.0368ZM12.2041 11.9998C12.1936 12.9143 12.9547 13.6966 13.8744 13.7178C14.7941 13.7389 15.5922 12.9618 15.6028 12.0315C15.6134 11.117 14.8522 10.3346 13.9325 10.3188C13.0128 10.2923 12.2147 11.0694 12.2041 11.9998Z" fill="#171717"/>
</svg>
