<svg width="26" height="21" viewBox="0 0 26 21" fill="none" xmlns="http://www.w3.org/2000/svg">
<path d="M26 2.49454C25.0439 2.9046 24.0034 3.19972 22.9316 3.31466C24.0443 2.65743 24.8776 1.61912 25.2751 0.394539C24.2309 1.01208 23.0871 1.44511 21.8942 1.67442C21.3957 1.14453 20.7927 0.722399 20.1229 0.434326C19.4531 0.146252 18.7308 -0.00158986 18.001 1.28933e-05C15.0482 1.28933e-05 12.6735 2.3796 12.6735 5.29971C12.6735 5.70977 12.7235 6.11983 12.8047 6.51436C8.38337 6.28448 4.44009 4.18448 1.81853 0.969243C1.34086 1.7804 1.09054 2.704 1.09362 3.64394C1.09362 5.483 2.03413 7.10459 3.46833 8.05829C2.62314 8.0252 1.79773 7.79423 1.05925 7.38418V7.44942C1.05925 10.0247 2.89028 12.1589 5.33061 12.6497C4.87241 12.768 4.40106 12.8286 3.92765 12.8299C3.58082 12.8299 3.25273 12.7957 2.92152 12.7491C3.59644 14.8491 5.56183 16.3744 7.90217 16.4241C6.07115 17.85 3.77767 18.6888 1.28735 18.6888C0.840524 18.6888 0.428074 18.6732 0 18.6235C2.36222 20.1302 5.165 21 8.18339 21C17.9822 21 23.3441 12.9293 23.3441 5.92412C23.3441 5.69424 23.3441 5.46436 23.3284 5.23448C24.3658 4.4796 25.2751 3.54454 26 2.49454Z" fill="#171717"/>
</svg>
