<svg width="26" height="18" viewBox="0 0 26 18" fill="none" xmlns="http://www.w3.org/2000/svg">
<path d="M13.0837 0H13.2283C14.5642 0.0048047 21.3327 0.0528519 23.1577 0.536525C23.7094 0.684139 24.2121 0.971866 24.6157 1.37095C25.0192 1.77004 25.3094 2.26651 25.4572 2.81075C25.6214 3.41934 25.7367 4.22493 25.8147 5.05614L25.831 5.22271L25.8667 5.63911L25.8797 5.80568C25.9854 7.26951 25.9984 8.64045 26 8.93994V9.06006C25.9984 9.37076 25.9837 10.8346 25.8667 12.3593L25.8537 12.5274L25.8391 12.694C25.7579 13.6101 25.6376 14.5198 25.4572 15.1893C25.3098 15.7337 25.0198 16.2304 24.6162 16.6296C24.2126 17.0287 23.7096 17.3163 23.1577 17.4635C21.2726 17.9632 14.1075 17.9984 13.1146 18H12.8838C12.3816 18 10.3048 17.9904 8.12713 17.9167L7.85087 17.9071L7.70948 17.9007L7.43159 17.8895L7.1537 17.8783C5.34983 17.7998 3.6321 17.6733 2.84068 17.4619C2.28894 17.3148 1.78609 17.0275 1.38251 16.6286C0.978934 16.2298 0.688794 15.7334 0.541159 15.1893C0.360773 14.5214 0.240515 13.6101 0.15926 12.694L0.146259 12.5258L0.133258 12.3593C0.0530557 11.2741 0.00861282 10.1866 0 9.0985L0 8.9015C0.0032502 8.55717 0.016251 7.3672 0.104007 6.05392L0.115382 5.88896L0.120258 5.80568L0.133258 5.63911L0.169011 5.22271L0.185262 5.05614C0.263266 4.22493 0.378649 3.41774 0.542784 2.81075C0.69017 2.26629 0.9802 1.76959 1.3838 1.37043C1.78739 0.971276 2.29037 0.683696 2.8423 0.536525C3.63373 0.328321 5.35146 0.200196 7.15532 0.120117L7.43159 0.108906L7.71111 0.0992973L7.85087 0.0944926L8.12876 0.0832817C9.67538 0.034233 11.2226 0.00700343 12.77 0.00160164H13.0837V0ZM10.4007 5.14103V12.8574L17.1562 9.0008L10.4007 5.14103Z" fill="#171717"/>
</svg>
