<svg width="96" height="54" viewBox="0 0 96 54" fill="none" xmlns="http://www.w3.org/2000/svg">
<path d="M38.134 47.1599C39.6131 46.8096 40.529 45.3228 40.1798 43.8392C39.8305 42.3555 38.3483 41.4368 36.8692 41.7871C35.39 42.1374 34.4741 43.6242 34.8233 45.1079C35.1726 46.5915 36.6548 47.5103 38.134 47.1599Z" fill="#E30613"/>
<path d="M60.1485 47.1587C61.6276 46.8084 62.5436 45.3217 62.1943 43.838C61.8451 42.3543 60.3628 41.4356 58.8837 41.7859C57.4046 42.1363 56.4886 43.623 56.8379 45.1067C57.1872 46.5903 58.6694 47.5091 60.1485 47.1587Z" fill="#E30613"/>
<path d="M19.7802 47.4531H27.8902V52.9536H14.2579V30.773H19.7802V47.4531Z" fill="white"/>
<path d="M37.5011 49.0309C34.994 49.0309 32.9598 46.9921 32.9598 44.4757C32.9598 42.1409 34.7106 40.2199 36.9662 39.9558V35.4191C36.9444 35.4191 36.9243 35.4174 36.9025 35.4174C31.8916 35.4174 27.8668 39.4158 27.8668 44.442C27.8668 49.4296 31.8916 53.4667 36.9025 53.4667C39.1127 53.4667 41.1637 52.6744 42.7435 51.3287V52.9906H46.9259V45.1182H41.9922C41.6786 47.3303 39.7902 49.0309 37.5011 49.0309ZM43.1392 35.9338L42.7451 37.5571C41.4471 36.4519 39.8305 35.7202 38.0696 35.4948V39.9625C40.1592 40.2249 41.8094 41.9071 42.0207 44.0181H46.9292V35.9355H43.1392V35.9338Z" fill="white"/>
<path d="M60.1675 35.34C57.7208 35.34 55.4719 36.3291 53.8536 37.912V29.0639H48.8025V44.0148H54.999C55.2287 41.7153 57.164 39.9205 59.5168 39.9205C62.0239 39.9205 64.0581 41.9592 64.0581 44.4757C64.0581 46.9905 62.0256 49.0309 59.5168 49.0309C57.2277 49.0309 55.3394 47.3303 55.0275 45.1199H48.8041V52.9923H53.8553V50.8947C55.4736 52.4776 57.7224 53.4667 60.1692 53.4667C65.1415 53.4667 69.1663 49.4296 69.1663 44.4017C69.1629 39.4175 65.1381 35.34 60.1675 35.34Z" fill="white"/>
<path d="M37.5011 21.9906C39.021 21.9906 40.2531 20.7547 40.2531 19.2302C40.2531 17.7057 39.021 16.4698 37.5011 16.4698C35.9813 16.4698 34.7492 17.7057 34.7492 19.2302C34.7492 20.7547 35.9813 21.9906 37.5011 21.9906Z" fill="white"/>
<path d="M21.3868 27.7468V10.7657L13.4546 18.0089L5.52405 10.7657V27.7468H0V0H1.89501L13.4563 10.5285L24.979 0H26.9125V27.7468H21.3868Z" fill="#E30613"/>
<path d="M87.3584 12.6278C88.6212 10.9642 90.8701 10.2526 93.1189 10.2526C94.105 10.2526 95.0911 10.4107 96 10.727L94.0664 15.1207C91.1853 13.8541 88.2657 15.5951 87.7525 18.3269V27.7468H82.8204V10.6866H86.6474L87.3584 12.6278Z" fill="#E30613"/>
<path d="M43.1392 10.6866L42.7451 12.3099C41.1654 10.9642 39.1144 10.1719 36.9041 10.1719C31.8932 10.1719 27.8684 14.1703 27.8684 19.1965C27.8684 24.1841 31.8932 28.2212 36.9041 28.2212C36.9259 28.2212 36.946 28.2195 36.9678 28.2195V23.7501C34.7123 23.4843 32.9615 21.5633 32.9615 19.2302C32.9615 16.7154 34.994 14.675 37.5028 14.675C40.0099 14.675 42.0441 16.7137 42.0441 19.2302C42.0441 21.5532 40.3101 23.4641 38.0713 23.745V28.1455C39.8321 27.9201 41.4505 27.1884 42.7468 26.0832V27.7451H46.9292V10.6866H43.1392Z" fill="#E30613"/>
<path d="M82.2067 19.1578C82.2067 14.1316 78.1416 10.0945 73.1693 10.0945C68.197 10.0945 64.132 14.1316 64.132 19.1578C64.132 24.1454 68.197 28.2229 73.1693 28.2229C75.8928 28.2229 78.3781 26.9966 79.9964 25.0554L76.2869 22.5625C75.497 23.3548 74.4321 23.8291 73.3672 23.8291C72.2218 23.8291 71.1569 23.3548 70.3285 22.4431C69.8941 21.9687 69.5789 21.4136 69.3424 20.7811H82.0491C82.1681 20.226 82.2067 19.7113 82.2067 19.1578ZM69.5353 17.0922C69.7466 16.6346 70.0115 16.2074 70.3302 15.8339C71.1586 14.9626 72.2235 14.4882 73.3689 14.4882C74.474 14.4882 75.5775 14.9626 76.3674 15.8339C76.7128 16.2074 76.9862 16.6363 77.1874 17.0922H69.5353Z" fill="#E30613"/>
<path d="M59.22 17.8121L66.1259 10.6883H59.3776L54.3265 16.1906V3.42651C52.6797 4.37356 50.8048 4.9623 48.8025 5.08678V27.7468H54.3265V22.0074L55.4719 20.8198L61.1536 27.7468H67.6251L59.22 17.8121Z" fill="#E30613"/>
</svg>
