<svg width="174" height="58" viewBox="0 0 174 58" fill="none" xmlns="http://www.w3.org/2000/svg">
<path d="M28.7085 57.4316C13.4299 57.55 -0.0295324 45.1407 4.86685e-05 28.6641C0.0296297 12.8234 12.7199 -0.0147778 28.7528 1.2767e-05C45.0668 0.0148033 57.5796 13.2819 57.476 28.9303C57.3577 44.8301 44.3273 57.55 28.7085 57.4316ZM28.1464 39.2689C28.1021 39.1357 28.0281 39.0026 27.9985 38.8547C27.5252 36.7545 27.0519 34.6542 26.5934 32.5392C26.4455 31.8736 26.7709 31.5926 27.4069 31.7257C28.4127 31.9476 29.4776 32.0511 30.3798 32.5096C32.8646 33.752 35.2607 35.1719 37.7159 36.4735C38.8252 37.0503 39.9641 37.6123 41.1473 37.9673C42.7299 38.4554 44.3716 38.411 45.6288 37.139C46.4275 36.3256 47.241 36.6362 48.2468 36.6509C47.6699 38.3814 47.1375 39.9788 46.5606 41.7389C47.877 41.1325 49.1638 40.6592 50.3322 39.964C52.3881 38.7216 54.0299 37.0207 54.5327 34.5803C55.1983 31.3559 55.3758 28.1168 54.8877 24.8333C54.1038 19.6714 52.0627 15.0864 48.5574 11.2556C41.7833 3.86034 33.3527 0.976188 23.517 2.88417C15.0272 4.52591 8.85958 9.46595 4.99925 17.157C2.23342 22.6443 1.67138 28.4718 2.92857 34.4767C3.13564 35.4973 3.49061 36.4882 3.78642 37.4792C3.99349 37.4496 4.06744 37.4496 4.12661 37.42C6.99597 36.2812 9.93928 36.1185 12.9713 36.5622C16.4323 37.0651 19.701 38.1744 22.9254 39.4611C23.8128 39.8161 24.6854 40.1711 25.706 40.5852C25.5433 40.1711 25.4398 39.9049 25.3362 39.6534C24.8186 38.4554 24.3009 37.2574 23.798 36.0593C23.3099 34.8761 23.9607 33.1456 25.1292 32.6575C25.8243 34.9944 26.5638 37.3313 28.1464 39.2689ZM42.2418 50.8942C42.1531 50.8351 42.0939 50.7463 42.0052 50.7315C41.665 50.6724 41.3248 50.6576 40.9846 50.5984C37.213 49.9033 33.6041 48.72 30.2467 46.8268C27.1407 45.0815 24.079 43.2327 21.0174 41.4135C18.784 40.0823 16.4175 39.0618 13.8588 38.5441C12.7791 38.3223 11.6846 38.1892 10.5901 38.0265C13.1045 39.4759 15.323 41.2212 17.3641 43.2031C20.2483 45.9838 23.2803 48.5425 26.7413 50.5836C28.6937 51.7373 30.7052 52.8318 32.9386 53.2903C36.296 53.9706 39.2837 52.7874 42.1087 51.1013C42.1826 51.0717 42.1974 50.983 42.2418 50.8942ZM29.5219 54.5919C29.5072 54.5031 29.5072 54.4292 29.4924 54.3404C29.3001 54.2369 29.1078 54.1481 28.9155 54.0446C27.3625 53.1867 25.7652 52.4029 24.2861 51.4415C21.1949 49.43 18.5917 46.812 15.8999 44.3124C14.5391 43.0405 13.0601 41.872 11.5071 40.8219C9.80617 39.6534 7.91298 38.8843 5.75356 39.1949C4.68865 39.3576 4.65907 39.3872 5.10278 40.3634C6.62621 43.7356 9.00748 46.4423 11.8473 48.7644C16.7281 52.743 22.319 54.8433 28.6493 54.7841C28.9451 54.7841 29.2261 54.6658 29.5219 54.5919ZM25.2771 42.1974C25.4398 42.3157 25.5729 42.434 25.7208 42.508C28.5162 43.9427 31.282 45.4809 34.1366 46.7972C37.1095 48.1728 40.2303 49.001 43.5729 48.6017C45.126 48.4094 46.5902 47.9509 47.6847 46.7972C48.8236 45.5992 49.7998 44.2681 50.8351 42.9813C50.9534 42.8334 50.9238 42.5524 50.9534 42.3453C50.7316 42.3601 50.4949 42.3157 50.2878 42.3897C49.5187 42.6559 48.7792 42.9961 48.0101 43.2327C42.8926 44.7709 37.7159 44.5787 32.5244 43.7208C30.0988 43.3215 27.7175 42.7151 25.2771 42.1974Z" fill="white"/>
<path d="M94.4819 23.7239C94.4819 21.0173 94.4967 18.2958 94.4672 15.5891C94.4524 14.9531 94.6446 14.7165 95.2954 14.7313C97.2478 14.7609 99.1853 14.7609 101.138 14.7313C101.803 14.7165 102.025 14.9088 102.025 15.6039C101.996 20.5883 101.996 25.5579 102.01 30.5424C102.025 32.7609 102.824 34.6097 104.865 35.6895C107.616 37.1241 111.136 35.3789 111.772 32.3024C111.876 31.77 111.935 31.2375 111.935 30.6903C111.95 25.7354 111.935 20.7806 111.95 15.8258C111.95 14.7461 111.95 14.7461 113.059 14.7461C114.952 14.7461 116.86 14.7609 118.753 14.7313C119.404 14.7165 119.596 14.9531 119.596 15.5891C119.581 20.7658 119.641 25.9425 119.567 31.1192C119.478 37.7453 114.494 42.0494 109.524 42.8185C105.042 43.4989 101.049 42.6114 97.795 39.3131C95.606 37.0946 94.4967 34.3879 94.4819 31.2671C94.4671 28.7527 94.4819 26.2383 94.4819 23.7239Z" fill="white"/>
<path d="M69.3528 28.5309C69.3528 24.2712 69.3528 20.0116 69.3528 15.7519C69.3528 14.7609 69.3676 14.7461 70.329 14.7461C74.1006 14.7461 77.8722 14.7166 81.629 14.7609C85.2674 14.8053 88.4326 15.9738 90.4737 19.1685C93.8607 24.4487 91.583 32.7166 83.7884 33.8851C81.91 34.1661 79.9576 34.033 78.0497 34.0626C76.9847 34.0774 76.9847 34.0626 76.9847 35.1571C76.9847 37.2721 76.9699 39.3872 76.9995 41.517C76.9995 42.0642 76.8368 42.2713 76.2896 42.2713C74.2189 42.2565 72.1482 42.2565 70.0776 42.2713C69.4268 42.2713 69.3232 41.9459 69.3232 41.3839C69.3528 37.0946 69.3528 32.8202 69.3528 28.5309ZM76.9995 24.4487C76.9995 25.2178 76.9699 25.9721 77.0291 26.7413C77.0439 26.9335 77.3397 27.2589 77.5172 27.2589C78.8483 27.3033 80.1795 27.3329 81.5106 27.2589C83.1376 27.1702 84.4096 25.8834 84.4096 24.4339C84.4244 23.088 83.182 21.7125 81.7473 21.6385C80.3422 21.5646 78.9371 21.5942 77.532 21.6385C77.3545 21.6385 77.0439 21.9491 77.0291 22.1414C76.9552 22.9105 76.9995 23.6796 76.9995 24.4487Z" fill="white"/>
<path d="M151.411 28.4422C151.411 24.153 151.425 19.8637 151.396 15.5745C151.396 14.9385 151.573 14.7166 152.224 14.7166C156.099 14.7462 159.96 14.6722 163.835 14.7462C167.68 14.8054 170.919 16.2105 172.798 19.7158C175.845 25.3954 172.96 32.8646 165.728 33.8703C163.761 34.1366 161.749 34.033 159.753 34.033C159.117 34.033 158.895 34.1957 158.909 34.8613C158.954 37.0799 158.909 39.2985 158.939 41.517C158.939 42.0643 158.776 42.2566 158.229 42.2566C156.188 42.2418 154.132 42.2418 152.091 42.2566C151.485 42.2566 151.381 41.9756 151.381 41.4431C151.425 37.1243 151.411 32.7906 151.411 28.4422ZM158.939 24.434C158.939 25.2031 158.954 25.9574 158.939 26.7265C158.924 27.1259 159.072 27.3034 159.501 27.3034C160.803 27.2886 162.104 27.3329 163.406 27.2886C165.107 27.2294 166.423 25.8687 166.364 24.3305C166.305 22.8218 164.944 21.6534 163.243 21.6386C162.045 21.6386 160.832 21.6534 159.634 21.6238C159.131 21.609 158.924 21.7569 158.939 22.2894C158.969 22.9993 158.939 23.7093 158.939 24.434Z" fill="white"/>
<path d="M144.607 32.5391C146.145 34.2105 147.476 35.6895 148.837 37.1538C149.192 37.5383 148.896 37.7898 148.674 38.0412C147.018 39.8752 145.066 41.2951 142.699 42.1086C135.984 44.4159 128.633 42.4636 124.403 36.3255C122.451 33.5005 121.815 30.3649 122.096 26.9483C122.614 20.6771 128.337 15.1751 134.387 14.2433C139.578 13.4446 144.089 14.7018 147.891 18.3402C148.26 18.6952 148.556 19.1093 148.926 19.5531C147.373 21.1652 145.879 22.733 144.385 24.286C143.631 23.6352 142.95 22.9845 142.211 22.4224C138.291 19.5087 132.523 20.6919 130.438 24.8924C128.219 29.3592 130.349 35.2754 136.073 36.1037C139.061 36.5326 141.708 35.586 143.912 33.4709C144.149 33.2343 144.326 32.9237 144.607 32.5391Z" fill="white"/>
<path d="M44.5491 36.8728C44.3716 36.7249 44.1793 36.5918 44.0166 36.4291C42.5228 34.9648 40.8219 33.8112 38.9139 32.9533C38.5737 32.8054 38.2631 32.3617 38.1448 31.9919C37.1538 28.9895 37.1538 25.9574 38.056 22.9253C38.0708 22.8514 38.0856 22.7774 38.1448 22.5112C36.7988 22.1414 35.4529 21.7569 34.107 21.3871C34.107 21.4167 34.0922 21.4315 34.0922 21.4611C35.0388 21.8308 35.9706 22.2006 36.9172 22.5852C37.2573 22.7183 37.3905 22.9253 37.2278 23.3247C35.8966 26.8596 35.8079 30.4241 37.0355 34.0034C37.0799 34.107 37.0651 34.2401 37.0947 34.5063C36.7693 34.314 36.5474 34.1957 36.3403 34.0478C34.0182 32.48 31.6369 31.0453 28.8563 30.4981C27.9837 30.3206 27.0371 30.3206 26.1497 30.4093C25.0108 30.5129 24.8777 30.7791 24.996 32.3173C24.7741 32.0363 24.6262 31.9032 24.5523 31.7257C23.2211 28.8415 23.2951 25.987 24.8925 23.2507C25.1883 22.7331 25.9426 22.3633 26.549 22.171C27.5104 21.8604 28.102 21.328 28.3534 20.3814C28.5753 19.5235 29.1669 19.0502 29.9656 18.71C34.8021 16.6246 39.5647 16.7577 44.2828 19.0798C44.904 19.3904 45.1111 19.6418 44.7414 20.3518C43.3658 22.9993 42.7446 25.8539 42.8186 28.8268C42.8777 31.3116 43.425 33.6928 44.4455 35.9706C44.5639 36.222 44.6378 36.4882 44.7266 36.7545C44.697 36.7693 44.623 36.8136 44.5491 36.8728Z" fill="white"/>
<path d="M17.0979 25.0847C16.9944 24.922 16.8317 24.7741 16.8169 24.6114C16.6986 23.7832 16.6246 22.9549 16.5359 22.1266C16.4471 21.2984 16.3732 20.4701 16.2549 19.6418C16.1365 18.784 15.5745 18.3698 14.761 18.2367C14.125 18.1332 13.489 18.0592 12.8826 17.9113C12.6903 17.867 12.5276 17.6599 12.3502 17.512C12.5276 17.3641 12.6903 17.1422 12.8974 17.0979C13.6665 16.9204 14.4356 16.8168 15.2047 16.6541C15.8703 16.5062 16.2696 16.0477 16.388 15.3821C16.5359 14.5835 16.6394 13.7848 16.8021 12.9861C16.8317 12.8086 17.024 12.6755 17.1423 12.5128C17.2902 12.6755 17.5268 12.8086 17.5564 12.9861C17.7043 13.7108 17.8227 14.4356 17.9114 15.1603C18.0445 16.1365 18.6805 16.6098 19.5827 16.7725C20.2039 16.8908 20.8547 16.9499 21.4759 17.0979C21.683 17.1422 21.8605 17.3641 22.038 17.512C21.8457 17.6599 21.6534 17.867 21.4315 17.9261C20.9878 18.0444 20.5145 18.1036 20.056 18.1628C18.1333 18.429 18.148 19.0946 17.9706 20.6476C17.8227 21.8604 17.7635 23.1028 17.6304 24.3156C17.6008 24.5819 17.4381 24.8333 17.3494 25.0995C17.2754 25.0847 17.1867 25.0847 17.0979 25.0847Z" fill="white"/>
<path d="M37.6567 16.595C36.296 16.0477 35.0388 15.5449 33.7668 15.042C33.6337 14.9828 33.471 15.0124 33.3379 14.9532C33.0865 14.8497 32.8498 14.7166 32.6132 14.5983C32.8202 14.4504 32.9977 14.2433 33.2196 14.1693C34.6986 13.6813 36.1481 13.7996 37.5828 14.4208C37.9377 14.5835 38.1448 14.761 37.9969 15.2047C37.8342 15.6928 37.7455 16.1956 37.6567 16.595Z" fill="white"/>
</svg>
